<svg xmlns="http://www.w3.org/2000/svg" xmlns:xlink="http://www.w3.org/1999/xlink" contentStyleType="text/css" data-diagram-type="CLASS" height="1019px" preserveAspectRatio="none" style="width:2802px;height:1019px;background:#FFFFFF;" version="1.1" viewBox="0 0 2802 1019" width="2802px" zoomAndPan="magnify"><defs/><g><!--cluster Modelo--><g class="cluster" data-entity="Modelo" data-source-line="2" data-uid="ent0002" id="cluster_Modelo"><path d="M552.5,446 L610.9834,446 A3.75,3.75 0 0 1 613.4834,448.5 L620.4834,468.2969 L1691.5,468.2969 A2.5,2.5 0 0 1 1694,470.7969 L1694,1009.5 A2.5,2.5 0 0 1 1691.5,1012 L552.5,1012 A2.5,2.5 0 0 1 550,1009.5 L550,448.5 A2.5,2.5 0 0 1 552.5,446" fill="none" style="stroke:#000000;stroke-width:1.5;"/><line style="stroke:#000000;stroke-width:1.5;" x1="550" x2="620.4834" y1="468.2969" y2="468.2969"/><text fill="#000000" font-family="sans-serif" font-size="14" font-weight="bold" lengthAdjust="spacing" textLength="57.4834" x="554" y="460.9951">Modelo</text></g><!--cluster Vista--><g class="cluster" data-entity="Vista" data-source-line="55" data-uid="ent0011" id="cluster_Vista"><path d="M8.5,217 L49.6064,217 A3.75,3.75 0 0 1 52.1064,219.5 L59.1064,239.2969 L837.5,239.2969 A2.5,2.5 0 0 1 840,241.7969 L840,394.5 A2.5,2.5 0 0 1 837.5,397 L8.5,397 A2.5,2.5 0 0 1 6,394.5 L6,219.5 A2.5,2.5 0 0 1 8.5,217" fill="none" style="stroke:#000000;stroke-width:1.5;"/><line style="stroke:#000000;stroke-width:1.5;" x1="6" x2="59.1064" y1="239.2969" y2="239.2969"/><text fill="#000000" font-family="sans-serif" font-size="14" font-weight="bold" lengthAdjust="spacing" textLength="40.1064" x="10" y="231.9951">Vista</text></g><!--cluster Controlador--><g class="cluster" data-entity="Controlador" data-source-line="69" data-uid="ent0015" id="cluster_Controlador"><path d="M939.5,6 L1034.3643,6 A3.75,3.75 0 0 1 1036.8643,8.5 L1043.8643,28.2969 L2296.5,28.2969 A2.5,2.5 0 0 1 2299,30.7969 L2299,386.5 A2.5,2.5 0 0 1 2296.5,389 L939.5,389 A2.5,2.5 0 0 1 937,386.5 L937,8.5 A2.5,2.5 0 0 1 939.5,6" fill="none" style="stroke:#000000;stroke-width:1.5;"/><line style="stroke:#000000;stroke-width:1.5;" x1="937" x2="1043.8643" y1="28.2969" y2="28.2969"/><text fill="#000000" font-family="sans-serif" font-size="14" font-weight="bold" lengthAdjust="spacing" textLength="93.8643" x="941" y="20.9951">Controlador</text></g><!--cluster Datos--><g class="cluster" data-entity="Datos" data-source-line="102" data-uid="ent0029" id="cluster_Datos"><path d="M2325.5,241 L2372.2119,241 A3.75,3.75 0 0 1 2374.7119,243.5 L2381.7119,263.2969 L2792.5,263.2969 A2.5,2.5 0 0 1 2795,265.7969 L2795,648.5 A2.5,2.5 0 0 1 2792.5,651 L2325.5,651 A2.5,2.5 0 0 1 2323,648.5 L2323,243.5 A2.5,2.5 0 0 1 2325.5,241" fill="none" style="stroke:#000000;stroke-width:1.5;"/><line style="stroke:#000000;stroke-width:1.5;" x1="2323" x2="2381.7119" y1="263.2969" y2="263.2969"/><text fill="#000000" font-family="sans-serif" font-size="14" font-weight="bold" lengthAdjust="spacing" textLength="45.7119" x="2327" y="255.9951">Datos</text></g><!--class Asignacion--><g class="entity" data-entity="Asignacion" data-source-line="3" data-uid="ent0003" id="entity_Asignacion"><rect fill="#F1F1F1" height="145.7813" rx="2.5" ry="2.5" style="stroke:#181818;stroke-width:0.5;" width="315.3994" x="1298.5" y="809.5"/><ellipse cx="1408.3872" cy="825.5" fill="#ADD1B2" rx="11" ry="11" style="stroke:#181818;stroke-width:1;"/><path d="M1411.356,831.1406 Q1410.7778,831.4375 1410.1372,831.5781 Q1409.4966,831.7344 1408.7935,831.7344 Q1406.2935,831.7344 1404.9653,830.0938 Q1403.6528,828.4375 1403.6528,825.3125 Q1403.6528,822.1875 1404.9653,820.5313 Q1406.2935,818.875 1408.7935,818.875 Q1409.4966,818.875 1410.1372,819.0313 Q1410.7935,819.1875 1411.356,819.4844 L1411.356,822.2031 Q1410.731,821.625 1410.1372,821.3594 Q1409.5435,821.0781 1408.9185,821.0781 Q1407.5747,821.0781 1406.8872,822.1563 Q1406.1997,823.2188 1406.1997,825.3125 Q1406.1997,827.4063 1406.8872,828.4844 Q1407.5747,829.5469 1408.9185,829.5469 Q1409.5435,829.5469 1410.1372,829.2813 Q1410.731,829 1411.356,828.4219 L1411.356,831.1406 Z " fill="#000000"/><ellipse cx="1433.8872" cy="825" fill="#84BE84" rx="3" ry="3" style="stroke:#038048;stroke-width:1;"/><text fill="#000000" font-family="sans-serif" font-size="14" lengthAdjust="spacing" textLength="76.125" x="1439.8872" y="830.3467">Asignacion</text><line style="stroke:#181818;stroke-width:0.5;" x1="1299.5" x2="1612.8994" y1="841.5" y2="841.5"/><rect fill="none" height="6" style="stroke:#C82930;stroke-width:1;" width="6" x="1306.5" y="852.1484"/><text fill="#000000" font-family="sans-serif" font-size="14" lengthAdjust="spacing" textLength="107.4268" x="1318.5" y="858.4951">variable: String</text><rect fill="none" height="6" style="stroke:#C82930;stroke-width:1;" width="6" x="1306.5" y="868.4453"/><text fill="#000000" font-family="sans-serif" font-size="14" lengthAdjust="spacing" textLength="86.0234" x="1318.5" y="874.792">valor: String</text><line style="stroke:#181818;stroke-width:0.5;" x1="1299.5" x2="1612.8994" y1="882.0938" y2="882.0938"/><ellipse cx="1309.5" cy="895.7422" fill="#84BE84" rx="3" ry="3" style="stroke:#038048;stroke-width:1;"/><text fill="#000000" font-family="sans-serif" font-size="14" lengthAdjust="spacing" textLength="289.3994" x="1318.5" y="899.0889">Asignacion(variable: String, valor: String)</text><ellipse cx="1309.5" cy="912.0391" fill="#84BE84" rx="3" ry="3" style="stroke:#038048;stroke-width:1;"/><text fill="#000000" font-family="sans-serif" font-size="14" lengthAdjust="spacing" textLength="137.915" x="1318.5" y="915.3857">String getVariable()</text><ellipse cx="1309.5" cy="928.3359" fill="#84BE84" rx="3" ry="3" style="stroke:#038048;stroke-width:1;"/><text fill="#000000" font-family="sans-serif" font-size="14" lengthAdjust="spacing" textLength="116.5117" x="1318.5" y="931.6826">String getValor()</text><ellipse cx="1309.5" cy="944.6328" fill="#84BE84" rx="3" ry="3" style="stroke:#038048;stroke-width:1;"/><text fill="#000000" font-family="sans-serif" font-size="14" lengthAdjust="spacing" textLength="112.9912" x="1318.5" y="947.9795">String toString()</text></g><!--class Consulta--><g class="entity" data-entity="Consulta" data-source-line="12" data-uid="ent0004" id="entity_Consulta"><rect fill="#F1F1F1" height="145.7813" rx="2.5" ry="2.5" style="stroke:#181818;stroke-width:0.5;" width="571.4668" x="1106.5" y="513.5"/><ellipse cx="1351.814" cy="529.5" fill="#ADD1B2" rx="11" ry="11" style="stroke:#181818;stroke-width:1;"/><path d="M1354.7827,535.1406 Q1354.2046,535.4375 1353.564,535.5781 Q1352.9233,535.7344 1352.2202,535.7344 Q1349.7202,535.7344 1348.3921,534.0938 Q1347.0796,532.4375 1347.0796,529.3125 Q1347.0796,526.1875 1348.3921,524.5313 Q1349.7202,522.875 1352.2202,522.875 Q1352.9233,522.875 1353.564,523.0313 Q1354.2202,523.1875 1354.7827,523.4844 L1354.7827,526.2031 Q1354.1577,525.625 1353.564,525.3594 Q1352.9702,525.0781 1352.3452,525.0781 Q1351.0015,525.0781 1350.314,526.1563 Q1349.6265,527.2188 1349.6265,529.3125 Q1349.6265,531.4063 1350.314,532.4844 Q1351.0015,533.5469 1352.3452,533.5469 Q1352.9702,533.5469 1353.564,533.2813 Q1354.1577,533 1354.7827,532.4219 L1354.7827,535.1406 Z " fill="#000000"/><ellipse cx="1377.314" cy="529" fill="#84BE84" rx="3" ry="3" style="stroke:#038048;stroke-width:1;"/><text fill="#000000" font-family="sans-serif" font-size="14" lengthAdjust="spacing" textLength="61.3389" x="1383.314" y="534.3467">Consulta</text><line style="stroke:#181818;stroke-width:0.5;" x1="1107.5" x2="1676.9668" y1="545.5" y2="545.5"/><rect fill="none" height="6" style="stroke:#C82930;stroke-width:1;" width="6" x="1114.5" y="556.1484"/><text fill="#000000" font-family="sans-serif" font-size="14" lengthAdjust="spacing" textLength="107.4268" x="1126.5" y="562.4951">variable: String</text><rect fill="none" height="6" style="stroke:#C82930;stroke-width:1;" width="6" x="1114.5" y="572.4453"/><text fill="#000000" font-family="sans-serif" font-size="14" lengthAdjust="spacing" textLength="147.4238" x="1126.5" y="578.792">valorOpcional: String</text><line style="stroke:#181818;stroke-width:0.5;" x1="1107.5" x2="1676.9668" y1="586.0938" y2="586.0938"/><ellipse cx="1117.5" cy="599.7422" fill="#84BE84" rx="3" ry="3" style="stroke:#038048;stroke-width:1;"/><text fill="#000000" font-family="sans-serif" font-size="14" lengthAdjust="spacing" textLength="545.4668" x="1126.5" y="603.0889">Consulta(variable: String, valorOpcional: String, evidencia: List&lt;Asignacion&gt;)</text><ellipse cx="1117.5" cy="616.0391" fill="#84BE84" rx="3" ry="3" style="stroke:#038048;stroke-width:1;"/><text fill="#000000" font-family="sans-serif" font-size="14" lengthAdjust="spacing" textLength="137.915" x="1126.5" y="619.3857">String getVariable()</text><ellipse cx="1117.5" cy="632.3359" fill="#84BE84" rx="3" ry="3" style="stroke:#038048;stroke-width:1;"/><text fill="#000000" font-family="sans-serif" font-size="14" lengthAdjust="spacing" textLength="177.9121" x="1126.5" y="635.6826">String getValorOpcional()</text><ellipse cx="1117.5" cy="648.6328" fill="#84BE84" rx="3" ry="3" style="stroke:#038048;stroke-width:1;"/><text fill="#000000" font-family="sans-serif" font-size="14" lengthAdjust="spacing" textLength="229.9814" x="1126.5" y="651.9795">List&lt;Asignacion&gt; getEvidencia()</text></g><!--class Nodo--><g class="entity" data-entity="Nodo" data-source-line="21" data-uid="ent0005" id="entity_Nodo"><rect fill="#F1F1F1" height="227.2656" rx="2.5" ry="2.5" style="stroke:#181818;stroke-width:0.5;" width="486.3389" x="576" y="769"/><ellipse cx="791.1743" cy="785" fill="#ADD1B2" rx="11" ry="11" style="stroke:#181818;stroke-width:1;"/><path d="M794.1431,790.6406 Q793.5649,790.9375 792.9243,791.0781 Q792.2837,791.2344 791.5806,791.2344 Q789.0806,791.2344 787.7524,789.5938 Q786.4399,787.9375 786.4399,784.8125 Q786.4399,781.6875 787.7524,780.0313 Q789.0806,778.375 791.5806,778.375 Q792.2837,778.375 792.9243,778.5313 Q793.5806,778.6875 794.1431,778.9844 L794.1431,781.7031 Q793.5181,781.125 792.9243,780.8594 Q792.3306,780.5781 791.7056,780.5781 Q790.3618,780.5781 789.6743,781.6563 Q788.9868,782.7188 788.9868,784.8125 Q788.9868,786.9063 789.6743,787.9844 Q790.3618,789.0469 791.7056,789.0469 Q792.3306,789.0469 792.9243,788.7813 Q793.5181,788.5 794.1431,787.9219 L794.1431,790.6406 Z " fill="#000000"/><ellipse cx="816.6743" cy="784.5" fill="#84BE84" rx="3" ry="3" style="stroke:#038048;stroke-width:1;"/><text fill="#000000" font-family="sans-serif" font-size="14" lengthAdjust="spacing" textLength="36.4902" x="822.6743" y="789.8467">Nodo</text><line style="stroke:#181818;stroke-width:0.5;" x1="577" x2="1061.3389" y1="801" y2="801"/><rect fill="none" height="6" style="stroke:#C82930;stroke-width:1;" width="6" x="584" y="811.6484"/><text fill="#000000" font-family="sans-serif" font-size="14" lengthAdjust="spacing" textLength="105.2803" x="596" y="817.9951">nombre: String</text><rect fill="none" height="6" style="stroke:#C82930;stroke-width:1;" width="6" x="584" y="827.9453"/><text fill="#000000" font-family="sans-serif" font-size="14" lengthAdjust="spacing" textLength="280.5742" x="596" y="834.292">tablaProbabilidad: Map&lt;String,Double&gt;</text><line style="stroke:#181818;stroke-width:0.5;" x1="577" x2="1061.3389" y1="841.5938" y2="841.5938"/><ellipse cx="587" cy="855.2422" fill="#84BE84" rx="3" ry="3" style="stroke:#038048;stroke-width:1;"/><text fill="#000000" font-family="sans-serif" font-size="14" lengthAdjust="spacing" textLength="152.6943" x="596" y="858.5889">Nodo(nombre: String)</text><ellipse cx="587" cy="871.5391" fill="#84BE84" rx="3" ry="3" style="stroke:#038048;stroke-width:1;"/><text fill="#000000" font-family="sans-serif" font-size="14" lengthAdjust="spacing" textLength="265.46" x="596" y="874.8857">void vincularPredecesor(padre: Nodo)</text><ellipse cx="587" cy="887.8359" fill="#84BE84" rx="3" ry="3" style="stroke:#038048;stroke-width:1;"/><text fill="#000000" font-family="sans-serif" font-size="14" lengthAdjust="spacing" textLength="460.3389" x="596" y="891.1826">void agregarProbabilidad(condicion: String, probabilidad: Double)</text><ellipse cx="587" cy="904.1328" fill="#84BE84" rx="3" ry="3" style="stroke:#038048;stroke-width:1;"/><text fill="#000000" font-family="sans-serif" font-size="14" lengthAdjust="spacing" textLength="136.0762" x="596" y="907.4795">String getNombre()</text><ellipse cx="587" cy="920.4297" fill="#84BE84" rx="3" ry="3" style="stroke:#038048;stroke-width:1;"/><text fill="#000000" font-family="sans-serif" font-size="14" lengthAdjust="spacing" textLength="170.3584" x="596" y="923.7764">List&lt;Nodo&gt; getPadres()</text><ellipse cx="587" cy="936.7266" fill="#84BE84" rx="3" ry="3" style="stroke:#038048;stroke-width:1;"/><text fill="#000000" font-family="sans-serif" font-size="14" lengthAdjust="spacing" textLength="156.9531" x="596" y="940.0732">List&lt;Nodo&gt; getHijos()</text><ellipse cx="587" cy="953.0234" fill="#84BE84" rx="3" ry="3" style="stroke:#038048;stroke-width:1;"/><text fill="#000000" font-family="sans-serif" font-size="14" lengthAdjust="spacing" textLength="317.2832" x="596" y="956.3701">Map&lt;String, Double&gt; getTablaProbabilidad()</text><ellipse cx="587" cy="969.3203" fill="#84BE84" rx="3" ry="3" style="stroke:#038048;stroke-width:1;"/><text fill="#000000" font-family="sans-serif" font-size="14" lengthAdjust="spacing" textLength="409.8896" x="596" y="972.667">Map&lt;String, String&gt; parseAsignaciones(condicion: String)</text><ellipse cx="587" cy="985.6172" fill="#84BE84" rx="3" ry="3" style="stroke:#038048;stroke-width:1;"/><text fill="#000000" font-family="sans-serif" font-size="14" lengthAdjust="spacing" textLength="417.2588" x="596" y="988.9639">double probabilidadDada(asignacion: Map&lt;String, String&gt;)</text></g><!--class RedBayesiana--><g class="entity" data-entity="RedBayesiana" data-source-line="35" data-uid="ent0006" id="entity_RedBayesiana"><rect fill="#F1F1F1" height="210.9688" rx="2.5" ry="2.5" style="stroke:#181818;stroke-width:0.5;" width="504.9736" x="566.5" y="481"/><ellipse cx="759.4746" cy="497" fill="#ADD1B2" rx="11" ry="11" style="stroke:#181818;stroke-width:1;"/><path d="M762.4434,502.6406 Q761.8652,502.9375 761.2246,503.0781 Q760.584,503.2344 759.8809,503.2344 Q757.3809,503.2344 756.0527,501.5938 Q754.7402,499.9375 754.7402,496.8125 Q754.7402,493.6875 756.0527,492.0313 Q757.3809,490.375 759.8809,490.375 Q760.584,490.375 761.2246,490.5313 Q761.8809,490.6875 762.4434,490.9844 L762.4434,493.7031 Q761.8184,493.125 761.2246,492.8594 Q760.6309,492.5781 760.0059,492.5781 Q758.6621,492.5781 757.9746,493.6563 Q757.2871,494.7188 757.2871,496.8125 Q757.2871,498.9063 757.9746,499.9844 Q758.6621,501.0469 760.0059,501.0469 Q760.6309,501.0469 761.2246,500.7813 Q761.8184,500.5 762.4434,499.9219 L762.4434,502.6406 Z " fill="#000000"/><ellipse cx="784.9746" cy="496.5" fill="#84BE84" rx="3" ry="3" style="stroke:#038048;stroke-width:1;"/><text fill="#000000" font-family="sans-serif" font-size="14" lengthAdjust="spacing" textLength="99.5244" x="790.9746" y="501.8467">RedBayesiana</text><line style="stroke:#181818;stroke-width:0.5;" x1="567.5" x2="1070.4736" y1="513" y2="513"/><rect fill="none" height="6" style="stroke:#C82930;stroke-width:1;" width="6" x="574.5" y="523.6484"/><text fill="#000000" font-family="sans-serif" font-size="14" lengthAdjust="spacing" textLength="191.5293" x="586.5" y="529.9951">nodos: Map&lt;String, Nodo&gt;</text><line style="stroke:#181818;stroke-width:0.5;" x1="567.5" x2="1070.4736" y1="537.2969" y2="537.2969"/><ellipse cx="577.5" cy="550.9453" fill="#84BE84" rx="3" ry="3" style="stroke:#038048;stroke-width:1;"/><text fill="#000000" font-family="sans-serif" font-size="14" lengthAdjust="spacing" textLength="110.4482" x="586.5" y="554.292">RedBayesiana()</text><ellipse cx="577.5" cy="567.2422" fill="#84BE84" rx="3" ry="3" style="stroke:#038048;stroke-width:1;"/><text fill="#000000" font-family="sans-serif" font-size="14" lengthAdjust="spacing" textLength="297.9307" x="586.5" y="570.5889">Nodo obtenerOCrearNodo(nombre: String)</text><ellipse cx="577.5" cy="583.5391" fill="#84BE84" rx="3" ry="3" style="stroke:#038048;stroke-width:1;"/><text fill="#000000" font-family="sans-serif" font-size="14" lengthAdjust="spacing" textLength="248.4316" x="586.5" y="586.8857">Nodo obtenerNodo(nombre: String)</text><ellipse cx="577.5" cy="599.8359" fill="#84BE84" rx="3" ry="3" style="stroke:#038048;stroke-width:1;"/><text fill="#000000" font-family="sans-serif" font-size="14" lengthAdjust="spacing" textLength="273.7314" x="586.5" y="603.1826">boolean contieneNodo(nombre: String)</text><ellipse cx="577.5" cy="616.1328" fill="#84BE84" rx="3" ry="3" style="stroke:#038048;stroke-width:1;"/><text fill="#000000" font-family="sans-serif" font-size="14" lengthAdjust="spacing" textLength="478.9736" x="586.5" y="619.4795">void agregarDependencia(nombrePadre: String, nombreHijo: String)</text><ellipse cx="577.5" cy="632.4297" fill="#84BE84" rx="3" ry="3" style="stroke:#038048;stroke-width:1;"/><text fill="#000000" font-family="sans-serif" font-size="14" lengthAdjust="spacing" textLength="211.3467" x="586.5" y="635.7764">Collection&lt;Nodo&gt; getNodos()</text><ellipse cx="577.5" cy="648.7266" fill="#84BE84" rx="3" ry="3" style="stroke:#038048;stroke-width:1;"/><text fill="#000000" font-family="sans-serif" font-size="14" lengthAdjust="spacing" textLength="303.502" x="586.5" y="652.0732">List&lt;Nodo&gt; getNodosEnOrdenTopologico()</text><ellipse cx="577.5" cy="665.0234" fill="#84BE84" rx="3" ry="3" style="stroke:#038048;stroke-width:1;"/><text fill="#000000" font-family="sans-serif" font-size="14" lengthAdjust="spacing" textLength="375.9492" x="586.5" y="668.3701">Set&lt;String&gt; extraerDominio(nombreVariable: String)</text><ellipse cx="577.5" cy="681.3203" fill="#84BE84" rx="3" ry="3" style="stroke:#038048;stroke-width:1;"/><text fill="#000000" font-family="sans-serif" font-size="14" lengthAdjust="spacing" textLength="293.4463" x="586.5" y="684.667">Set&lt;String&gt; extraerDominio(nodo: Nodo)</text></g><!--class VistaRed--><g class="entity" data-entity="VistaRed" data-source-line="56" data-uid="ent0012" id="entity_VistaRed"><rect fill="#F1F1F1" height="129.4844" rx="2.5" ry="2.5" style="stroke:#181818;stroke-width:0.5;" width="801.6055" x="22" y="252"/><ellipse cx="382.0244" cy="268" fill="#ADD1B2" rx="11" ry="11" style="stroke:#181818;stroke-width:1;"/><path d="M384.9932,273.6406 Q384.415,273.9375 383.7744,274.0781 Q383.1338,274.2344 382.4307,274.2344 Q379.9307,274.2344 378.6025,272.5938 Q377.29,270.9375 377.29,267.8125 Q377.29,264.6875 378.6025,263.0313 Q379.9307,261.375 382.4307,261.375 Q383.1338,261.375 383.7744,261.5313 Q384.4307,261.6875 384.9932,261.9844 L384.9932,264.7031 Q384.3682,264.125 383.7744,263.8594 Q383.1807,263.5781 382.5557,263.5781 Q381.2119,263.5781 380.5244,264.6563 Q379.8369,265.7188 379.8369,267.8125 Q379.8369,269.9063 380.5244,270.9844 Q381.2119,272.0469 382.5557,272.0469 Q383.1807,272.0469 383.7744,271.7813 Q384.3682,271.5 384.9932,270.9219 L384.9932,273.6406 Z " fill="#000000"/><ellipse cx="407.5244" cy="267.5" fill="#84BE84" rx="3" ry="3" style="stroke:#038048;stroke-width:1;"/><text fill="#000000" font-family="sans-serif" font-size="14" lengthAdjust="spacing" textLength="62.0566" x="413.5244" y="272.8467">VistaRed</text><line style="stroke:#181818;stroke-width:0.5;" x1="23" x2="822.6055" y1="284" y2="284"/><line style="stroke:#181818;stroke-width:0.5;" x1="23" x2="822.6055" y1="292" y2="292"/><ellipse cx="33" cy="305.6484" fill="#84BE84" rx="3" ry="3" style="stroke:#038048;stroke-width:1;"/><text fill="#000000" font-family="sans-serif" font-size="14" lengthAdjust="spacing" textLength="304.6777" x="42" y="308.9951">void mostrarEstructura(red: RedBayesiana)</text><ellipse cx="33" cy="321.9453" fill="#84BE84" rx="3" ry="3" style="stroke:#038048;stroke-width:1;"/><text fill="#000000" font-family="sans-serif" font-size="14" lengthAdjust="spacing" textLength="277.8057" x="42" y="325.292">void mostrarTablas(red: RedBayesiana)</text><ellipse cx="33" cy="338.2422" fill="#84BE84" rx="3" ry="3" style="stroke:#038048;stroke-width:1;"/><text fill="#000000" font-family="sans-serif" font-size="14" lengthAdjust="spacing" textLength="775.6055" x="42" y="341.5889">void mostrarDistribucion(variable: String, evidencia: Map&lt;String, String&gt;, distribucion: Map&lt;String, Double&gt;)</text><ellipse cx="33" cy="354.5391" fill="#84BE84" rx="3" ry="3" style="stroke:#038048;stroke-width:1;"/><text fill="#000000" font-family="sans-serif" font-size="14" lengthAdjust="spacing" textLength="748.1182" x="42" y="357.8857">void mostrarProbabilidadPuntual(variable: String, valor: String, evidencia: Map&lt;String, String&gt;, p: double)</text><ellipse cx="33" cy="370.8359" fill="#84BE84" rx="3" ry="3" style="stroke:#038048;stroke-width:1;"/><text fill="#000000" font-family="sans-serif" font-size="14" lengthAdjust="spacing" textLength="245.2051" x="42" y="374.1826">void mostrarError(mensaje: String)</text></g><!--class IConsultaParser--><g class="entity" data-entity="IConsultaParser" data-source-line="70" data-uid="ent0016" id="entity_IConsultaParser"><rect fill="#F1F1F1" height="64.2969" rx="2.5" ry="2.5" style="stroke:#181818;stroke-width:0.5;" width="228.8018" x="1961.5" y="65.5"/><ellipse cx="2011.1968" cy="81.5" fill="#B4A7E5" rx="11" ry="11" style="stroke:#181818;stroke-width:1;"/><path d="M2007.1187,77.2656 L2007.1187,75.1094 L2014.5093,75.1094 L2014.5093,77.2656 L2012.0405,77.2656 L2012.0405,85.3438 L2014.5093,85.3438 L2014.5093,87.5 L2007.1187,87.5 L2007.1187,85.3438 L2009.5874,85.3438 L2009.5874,77.2656 L2007.1187,77.2656 Z " fill="#000000"/><ellipse cx="2036.6968" cy="81" fill="#84BE84" rx="3" ry="3" style="stroke:#038048;stroke-width:1;"/><text fill="#000000" font-family="sans-serif" font-size="14" font-style="italic" lengthAdjust="spacing" textLength="109.9082" x="2042.6968" y="86.3467">IConsultaParser</text><line style="stroke:#181818;stroke-width:0.5;" x1="1962.5" x2="2189.3018" y1="97.5" y2="97.5"/><line style="stroke:#181818;stroke-width:0.5;" x1="1962.5" x2="2189.3018" y1="105.5" y2="105.5"/><polygon fill="#4177AF" points="1972.5,115.1484,1968.5,121.1484,1976.5,121.1484" style="stroke:#1963A0;stroke-width:1;"/><text fill="#000000" font-family="sans-serif" font-size="14" lengthAdjust="spacing" textLength="202.8018" x="1981.5" y="122.4951">Consulta parse(input: String)</text></g><!--class ConsultaParser--><g class="entity" data-entity="ConsultaParser" data-source-line="74" data-uid="ent0017" id="entity_ConsultaParser"><rect fill="#F1F1F1" height="80.5938" rx="2.5" ry="2.5" style="stroke:#181818;stroke-width:0.5;" width="414.8076" x="1868.5" y="276"/><ellipse cx="2013.2642" cy="292" fill="#ADD1B2" rx="11" ry="11" style="stroke:#181818;stroke-width:1;"/><path d="M2016.2329,297.6406 Q2015.6548,297.9375 2015.0142,298.0781 Q2014.3735,298.2344 2013.6704,298.2344 Q2011.1704,298.2344 2009.8423,296.5938 Q2008.5298,294.9375 2008.5298,291.8125 Q2008.5298,288.6875 2009.8423,287.0313 Q2011.1704,285.375 2013.6704,285.375 Q2014.3735,285.375 2015.0142,285.5313 Q2015.6704,285.6875 2016.2329,285.9844 L2016.2329,288.7031 Q2015.6079,288.125 2015.0142,287.8594 Q2014.4204,287.5781 2013.7954,287.5781 Q2012.4517,287.5781 2011.7642,288.6563 Q2011.0767,289.7188 2011.0767,291.8125 Q2011.0767,293.9063 2011.7642,294.9844 Q2012.4517,296.0469 2013.7954,296.0469 Q2014.4204,296.0469 2015.0142,295.7813 Q2015.6079,295.5 2016.2329,294.9219 L2016.2329,297.6406 Z " fill="#000000"/><ellipse cx="2038.7642" cy="291.5" fill="#84BE84" rx="3" ry="3" style="stroke:#038048;stroke-width:1;"/><text fill="#000000" font-family="sans-serif" font-size="14" lengthAdjust="spacing" textLength="105.7793" x="2044.7642" y="296.8467">ConsultaParser</text><line style="stroke:#181818;stroke-width:0.5;" x1="1869.5" x2="2282.3076" y1="308" y2="308"/><line style="stroke:#181818;stroke-width:0.5;" x1="1869.5" x2="2282.3076" y1="316" y2="316"/><ellipse cx="1879.5" cy="329.6484" fill="#84BE84" rx="3" ry="3" style="stroke:#038048;stroke-width:1;"/><text fill="#000000" font-family="sans-serif" font-size="14" lengthAdjust="spacing" textLength="202.8018" x="1888.5" y="332.9951">Consulta parse(input: String)</text><rect fill="#F24D5C" height="6" style="stroke:#C82930;stroke-width:1;" width="6" x="1876.5" y="342.9453"/><text fill="#000000" font-family="sans-serif" font-size="14" lengthAdjust="spacing" textLength="388.8076" x="1888.5" y="349.292">List&lt;Asignacion&gt; parseEvidencia(evidencePart: String)</text></g><!--class MotorInferencia--><g class="entity" data-entity="MotorInferencia" data-source-line="79" data-uid="ent0018" id="entity_MotorInferencia"><rect fill="#F1F1F1" height="113.1875" rx="2.5" ry="2.5" style="stroke:#181818;stroke-width:0.5;" width="879.5078" x="953" y="260"/><ellipse cx="1327.8003" cy="276" fill="#ADD1B2" rx="11" ry="11" style="stroke:#181818;stroke-width:1;"/><path d="M1330.769,281.6406 Q1330.1909,281.9375 1329.5503,282.0781 Q1328.9097,282.2344 1328.2065,282.2344 Q1325.7065,282.2344 1324.3784,280.5938 Q1323.0659,278.9375 1323.0659,275.8125 Q1323.0659,272.6875 1324.3784,271.0313 Q1325.7065,269.375 1328.2065,269.375 Q1328.9097,269.375 1329.5503,269.5313 Q1330.2065,269.6875 1330.769,269.9844 L1330.769,272.7031 Q1330.144,272.125 1329.5503,271.8594 Q1328.9565,271.5781 1328.3315,271.5781 Q1326.9878,271.5781 1326.3003,272.6563 Q1325.6128,273.7188 1325.6128,275.8125 Q1325.6128,277.9063 1326.3003,278.9844 Q1326.9878,280.0469 1328.3315,280.0469 Q1328.9565,280.0469 1329.5503,279.7813 Q1330.144,279.5 1330.769,278.9219 L1330.769,281.6406 Z " fill="#000000"/><ellipse cx="1353.3003" cy="275.5" fill="#84BE84" rx="3" ry="3" style="stroke:#038048;stroke-width:1;"/><text fill="#000000" font-family="sans-serif" font-size="14" lengthAdjust="spacing" textLength="110.4072" x="1359.3003" y="280.8467">MotorInferencia</text><line style="stroke:#181818;stroke-width:0.5;" x1="954" x2="1831.5078" y1="292" y2="292"/><line style="stroke:#181818;stroke-width:0.5;" x1="954" x2="1831.5078" y1="300" y2="300"/><ellipse cx="964" cy="313.6484" fill="#84BE84" rx="3" ry="3" style="stroke:#038048;stroke-width:1;"/><text fill="#000000" font-family="sans-serif" font-size="14" lengthAdjust="spacing" textLength="853.5078" x="973" y="316.9951">Map&lt;String, Double&gt; distribucionPosterior(red: RedBayesiana, variableConsulta: String, evidencia: Map&lt;String, String&gt;)</text><ellipse cx="964" cy="329.9453" fill="#84BE84" rx="3" ry="3" style="stroke:#038048;stroke-width:1;"/><text fill="#000000" font-family="sans-serif" font-size="14" lengthAdjust="spacing" textLength="787.1035" x="973" y="333.292">double probabilidadPosterior(red: RedBayesiana, variable: String, valor: String, evidencia: Map&lt;String, String&gt;)</text><rect fill="#F24D5C" height="6" style="stroke:#C82930;stroke-width:1;" width="6" x="961" y="343.2422"/><text fill="#000000" font-family="sans-serif" font-size="14" lengthAdjust="spacing" textLength="675.4658" x="973" y="349.5889">double backtrack(red: RedBayesiana, orden: List&lt;Nodo&gt;, idx: int, estado: Map&lt;String, String&gt;)</text><rect fill="#F24D5C" height="6" style="stroke:#C82930;stroke-width:1;" width="6" x="961" y="359.5391"/><text fill="#000000" font-family="sans-serif" font-size="14" lengthAdjust="spacing" textLength="652.7158" x="973" y="365.8857">void validarParametros(red: RedBayesiana, variable: String, evidencia: Map&lt;String, String&gt;)</text></g><!--class ControladorRed--><g class="entity" data-entity="ControladorRed" data-source-line="86" data-uid="ent0019" id="entity_ControladorRed"><rect fill="#F1F1F1" height="113.1875" rx="2.5" ry="2.5" style="stroke:#181818;stroke-width:0.5;" width="971.8066" x="953" y="41"/><ellipse cx="1374.189" cy="57" fill="#ADD1B2" rx="11" ry="11" style="stroke:#181818;stroke-width:1;"/><path d="M1377.1577,62.6406 Q1376.5796,62.9375 1375.939,63.0781 Q1375.2983,63.2344 1374.5952,63.2344 Q1372.0952,63.2344 1370.7671,61.5938 Q1369.4546,59.9375 1369.4546,56.8125 Q1369.4546,53.6875 1370.7671,52.0313 Q1372.0952,50.375 1374.5952,50.375 Q1375.2983,50.375 1375.939,50.5313 Q1376.5952,50.6875 1377.1577,50.9844 L1377.1577,53.7031 Q1376.5327,53.125 1375.939,52.8594 Q1375.3452,52.5781 1374.7202,52.5781 Q1373.3765,52.5781 1372.689,53.6563 Q1372.0015,54.7188 1372.0015,56.8125 Q1372.0015,58.9063 1372.689,59.9844 Q1373.3765,61.0469 1374.7202,61.0469 Q1375.3452,61.0469 1375.939,60.7813 Q1376.5327,60.5 1377.1577,59.9219 L1377.1577,62.6406 Z " fill="#000000"/><ellipse cx="1399.689" cy="56.5" fill="#84BE84" rx="3" ry="3" style="stroke:#038048;stroke-width:1;"/><text fill="#000000" font-family="sans-serif" font-size="14" lengthAdjust="spacing" textLength="109.9287" x="1405.689" y="61.8467">ControladorRed</text><line style="stroke:#181818;stroke-width:0.5;" x1="954" x2="1923.8066" y1="73" y2="73"/><line style="stroke:#181818;stroke-width:0.5;" x1="954" x2="1923.8066" y1="81" y2="81"/><ellipse cx="964" cy="94.6484" fill="#84BE84" rx="3" ry="3" style="stroke:#038048;stroke-width:1;"/><text fill="#000000" font-family="sans-serif" font-size="14" lengthAdjust="spacing" textLength="945.8066" x="973" y="97.9951">ControladorRed(modelo: RedBayesiana, vista: VistaRed, lector: Datos.ILectorArchivos, parser: ConsultaParser, motor: MotorInferencia)</text><ellipse cx="964" cy="110.9453" fill="#84BE84" rx="3" ry="3" style="stroke:#038048;stroke-width:1;"/><text fill="#000000" font-family="sans-serif" font-size="14" lengthAdjust="spacing" textLength="501.0674" x="973" y="114.292">void inicializar(archivoEstructura: String, archivoProbabilidades: String)</text><ellipse cx="964" cy="127.2422" fill="#84BE84" rx="3" ry="3" style="stroke:#038048;stroke-width:1;"/><text fill="#000000" font-family="sans-serif" font-size="14" lengthAdjust="spacing" textLength="336.4443" x="973" y="130.5889">void procesarConsulta(comandoUsuario: String)</text><rect fill="#F24D5C" height="6" style="stroke:#C82930;stroke-width:1;" width="6" x="961" y="140.5391"/><text fill="#000000" font-family="sans-serif" font-size="14" lengthAdjust="spacing" textLength="404.9951" x="973" y="146.8857">Map&lt;String, String&gt; toMap(evidencia: List&lt;Asignacion&gt;)</text></g><!--class ILectorArchivos--><g class="entity" data-entity="ILectorArchivos" data-source-line="102" data-uid="ent0028" id="entity_ILectorArchivos"><rect fill="#F1F1F1" height="80.5938" rx="2.5" ry="2.5" style="stroke:#181818;stroke-width:0.5;" width="439.793" x="2339" y="276"/><ellipse cx="2495.1528" cy="292" fill="#B4A7E5" rx="11" ry="11" style="stroke:#181818;stroke-width:1;"/><path d="M2491.0747,287.7656 L2491.0747,285.6094 L2498.4653,285.6094 L2498.4653,287.7656 L2495.9966,287.7656 L2495.9966,295.8438 L2498.4653,295.8438 L2498.4653,298 L2491.0747,298 L2491.0747,295.8438 L2493.5435,295.8438 L2493.5435,287.7656 L2491.0747,287.7656 Z " fill="#000000"/><ellipse cx="2520.6528" cy="291.5" fill="#84BE84" rx="3" ry="3" style="stroke:#038048;stroke-width:1;"/><text fill="#000000" font-family="sans-serif" font-size="14" font-style="italic" lengthAdjust="spacing" textLength="107.9873" x="2526.6528" y="296.8467">ILectorArchivos</text><line style="stroke:#181818;stroke-width:0.5;" x1="2340" x2="2777.793" y1="308" y2="308"/><line style="stroke:#181818;stroke-width:0.5;" x1="2340" x2="2777.793" y1="316" y2="316"/><ellipse cx="2350" cy="329.6484" fill="#84BE84" rx="3" ry="3" style="stroke:#038048;stroke-width:1;"/><text fill="#000000" font-family="sans-serif" font-size="14" lengthAdjust="spacing" textLength="400.3398" x="2359" y="332.9951">void construirEstructura(ruta: String, red: RedBayesiana)</text><ellipse cx="2350" cy="345.9453" fill="#84BE84" rx="3" ry="3" style="stroke:#038048;stroke-width:1;"/><text fill="#000000" font-family="sans-serif" font-size="14" lengthAdjust="spacing" textLength="413.793" x="2359" y="349.292">void cargarProbabilidades(ruta: String, red: RedBayesiana)</text></g><!--class LectorArchivosTexto--><g class="entity" data-entity="LectorArchivosTexto" data-source-line="111" data-uid="ent0031" id="entity_LectorArchivosTexto"><rect fill="#F1F1F1" height="96.8906" rx="2.5" ry="2.5" style="stroke:#181818;stroke-width:0.5;" width="439.793" x="2339" y="538"/><ellipse cx="2477.4648" cy="554" fill="#ADD1B2" rx="11" ry="11" style="stroke:#181818;stroke-width:1;"/><path d="M2480.4336,559.6406 Q2479.8555,559.9375 2479.2148,560.0781 Q2478.5742,560.2344 2477.8711,560.2344 Q2475.3711,560.2344 2474.043,558.5938 Q2472.7305,556.9375 2472.7305,553.8125 Q2472.7305,550.6875 2474.043,549.0313 Q2475.3711,547.375 2477.8711,547.375 Q2478.5742,547.375 2479.2148,547.5313 Q2479.8711,547.6875 2480.4336,547.9844 L2480.4336,550.7031 Q2479.8086,550.125 2479.2148,549.8594 Q2478.6211,549.5781 2477.9961,549.5781 Q2476.6523,549.5781 2475.9648,550.6563 Q2475.2773,551.7188 2475.2773,553.8125 Q2475.2773,555.9063 2475.9648,556.9844 Q2476.6523,558.0469 2477.9961,558.0469 Q2478.6211,558.0469 2479.2148,557.7813 Q2479.8086,557.5 2480.4336,556.9219 L2480.4336,559.6406 Z " fill="#000000"/><ellipse cx="2502.9648" cy="553.5" fill="#84BE84" rx="3" ry="3" style="stroke:#038048;stroke-width:1;"/><text fill="#000000" font-family="sans-serif" font-size="14" lengthAdjust="spacing" textLength="143.3633" x="2508.9648" y="558.8467">LectorArchivosTexto</text><line style="stroke:#181818;stroke-width:0.5;" x1="2340" x2="2777.793" y1="570" y2="570"/><line style="stroke:#181818;stroke-width:0.5;" x1="2340" x2="2777.793" y1="578" y2="578"/><ellipse cx="2350" cy="591.6484" fill="#84BE84" rx="3" ry="3" style="stroke:#038048;stroke-width:1;"/><text fill="#000000" font-family="sans-serif" font-size="14" lengthAdjust="spacing" textLength="400.3398" x="2359" y="594.9951">void construirEstructura(ruta: String, red: RedBayesiana)</text><ellipse cx="2350" cy="607.9453" fill="#84BE84" rx="3" ry="3" style="stroke:#038048;stroke-width:1;"/><text fill="#000000" font-family="sans-serif" font-size="14" lengthAdjust="spacing" textLength="413.793" x="2359" y="611.292">void cargarProbabilidades(ruta: String, red: RedBayesiana)</text><rect fill="#F24D5C" height="6" style="stroke:#C82930;stroke-width:1;" width="6" x="2347" y="621.2422"/><text fill="#000000" font-family="sans-serif" font-size="14" lengthAdjust="spacing" textLength="278.5645" x="2359" y="627.5889">BufferedReader getReader(ruta: String)</text></g><!--link Nodo to Nodo--><g class="link" data-entity-1="Nodo" data-entity-2="Nodo" data-source-line="49" data-uid="lnk7" id="link_Nodo_Nodo"><path codeLine="49" d="M1062.05,871.28 C1083.54,873.64 1097,877.38 1097,882.5 C1097,887.62 1083.54,891.36 1062.05,893.72" fill="none" id="Nodo-Nodo" style="stroke:#181818;stroke-width:1;"/><text fill="#000000" font-family="sans-serif" font-size="13" lengthAdjust="spacing" textLength="30.1895" x="1103" y="887.0669">hijos</text><text fill="#000000" font-family="sans-serif" font-size="13" lengthAdjust="spacing" textLength="23.0356" x="1070.3974" y="867.7305">0..*</text><text fill="#000000" font-family="sans-serif" font-size="13" lengthAdjust="spacing" textLength="23.0356" x="1070.3974" y="890.9068">0..*</text></g><!--link Nodo to Nodo--><g class="link" data-entity-1="Nodo" data-entity-2="Nodo" data-source-line="50" data-uid="lnk8" id="link_Nodo_Nodo"><path codeLine="50" d="M1062.19,855.54 C1107.23,858.93 1139,867.92 1139,882.5 C1139,897.08 1107.23,906.07 1062.19,909.46" fill="none" id="Nodo-Nodo-1" style="stroke:#181818;stroke-width:1;"/><text fill="#000000" font-family="sans-serif" font-size="13" lengthAdjust="spacing" textLength="44.5859" x="1145" y="887.0669">padres</text><text fill="#000000" font-family="sans-serif" font-size="13" lengthAdjust="spacing" textLength="23.0356" x="1070.542" y="851.474">0..*</text><text fill="#000000" font-family="sans-serif" font-size="13" lengthAdjust="spacing" textLength="23.0356" x="1070.542" y="907.1632">0..*</text></g><!--reverse link Consulta to Asignacion--><g class="link" data-entity-1="Consulta" data-entity-2="Asignacion" data-source-line="51" data-uid="lnk9" id="link_Consulta_Asignacion"><path codeLine="51" d="M1410.293,671.5253 C1420.213,717.0853 1430.42,763.97 1440.32,809.48" fill="none" id="Consulta-backto-Asignacion" style="stroke:#181818;stroke-width:1;"/><polygon fill="#181818" points="1407.74,659.8,1405.1081,666.5136,1410.293,671.5253,1412.9249,664.8116,1407.74,659.8" style="stroke:#181818;stroke-width:1;"/><text fill="#000000" font-family="sans-serif" font-size="13" lengthAdjust="spacing" textLength="62.5181" x="1425" y="735.0669">evidencia</text></g><!--reverse link RedBayesiana to Nodo--><g class="link" data-entity-1="RedBayesiana" data-entity-2="Nodo" data-source-line="52" data-uid="lnk10" id="link_RedBayesiana_Nodo"><path codeLine="52" d="M819,704.4 C819,729.21 819,743.78 819,768.93" fill="none" id="RedBayesiana-backto-Nodo" style="stroke:#181818;stroke-width:1;"/><polygon fill="none" points="819,692.4,815,698.4,819,704.4,823,698.4,819,692.4" style="stroke:#181818;stroke-width:1;"/><text fill="#000000" font-family="sans-serif" font-size="13" lengthAdjust="spacing" textLength="56.2847" x="820" y="735.0669">contiene</text><text fill="#000000" font-family="sans-serif" font-size="13" lengthAdjust="spacing" textLength="23.0356" x="795.2172" y="757.858">0..*</text></g><!--link VistaRed to RedBayesiana--><g class="link" data-entity-1="VistaRed" data-entity-2="RedBayesiana" data-source-line="65" data-uid="lnk13" id="link_VistaRed_RedBayesiana"><path codeLine="65" d="M516.85,381.01 C560.87,410.81 609.5407,443.7476 659.3307,477.4376" fill="none" id="VistaRed-to-RedBayesiana" style="stroke:#181818;stroke-width:1;stroke-dasharray:7,7;"/><polygon fill="#181818" points="664.3,480.8,659.0877,472.4435,660.1589,477.998,654.6044,479.0692,664.3,480.8" style="stroke:#181818;stroke-width:1;"/><text fill="#000000" font-family="sans-serif" font-size="13" lengthAdjust="spacing" textLength="22.9785" x="586" y="426.0669">usa</text></g><!--link VistaRed to Nodo--><g class="link" data-entity-1="VistaRed" data-entity-2="Nodo" data-source-line="66" data-uid="lnk14" id="link_VistaRed_Nodo"><path codeLine="66" d="M426.56,381.1 C433.89,460.78 456.32,598.22 525,692 C546.17,720.91 568.4447,742.8911 597.5047,765.2511" fill="none" id="VistaRed-to-Nodo" style="stroke:#181818;stroke-width:1;stroke-dasharray:7,7;"/><polygon fill="#181818" points="602.26,768.91,597.5664,760.2515,598.2973,765.8609,592.6878,766.5918,602.26,768.91" style="stroke:#181818;stroke-width:1;"/><text fill="#000000" font-family="sans-serif" font-size="13" lengthAdjust="spacing" textLength="22.9785" x="526" y="591.0669">usa</text></g><!--link ConsultaParser to Asignacion--><g class="link" data-entity-1="ConsultaParser" data-entity-2="Asignacion" data-source-line="94" data-uid="lnk20" id="link_ConsultaParser_Asignacion"><path codeLine="94" d="M2051.35,357.23 C2004.65,430.21 1897.13,587.66 1777,692 C1724.96,737.19 1665.9189,774.6732 1608.5689,806.4332" fill="none" id="ConsultaParser-to-Asignacion" style="stroke:#181818;stroke-width:1;stroke-dasharray:7,7;"/><polygon fill="#181818" points="1603.32,809.34,1613.1312,808.4791,1607.6941,806.9177,1609.2554,801.4806,1603.32,809.34" style="stroke:#181818;stroke-width:1;"/><text fill="#000000" font-family="sans-serif" font-size="13" lengthAdjust="spacing" textLength="22.9785" x="1994" y="591.0669">usa</text></g><!--reverse link IConsultaParser to ConsultaParser--><g class="link" data-entity-1="IConsultaParser" data-entity-2="ConsultaParser" data-source-line="95" data-uid="lnk21" id="link_IConsultaParser_ConsultaParser"><path codeLine="95" d="M2076,147.59 C2076,186.03 2076,233.52 2076,275.62" fill="none" id="IConsultaParser-backto-ConsultaParser" style="stroke:#181818;stroke-width:1;stroke-dasharray:7,7;"/><polygon fill="none" points="2076,129.59,2070,147.59,2082,147.59,2076,129.59" style="stroke:#181818;stroke-width:1;"/></g><!--link MotorInferencia to Nodo--><g class="link" data-entity-1="MotorInferencia" data-entity-2="Nodo" data-source-line="96" data-uid="lnk22" id="link_MotorInferencia_Nodo"><path codeLine="96" d="M1621.82,373.19 C1650.65,389.53 1676.47,410.66 1695,438 C1758.33,531.45 1765.05,603.48 1695,692 C1638.61,763.26 1585.32,722.26 1496,739 C1401.17,756.77 1375.77,750.9 1281,769 C1209.54,782.65 1138.3681,798.8043 1068.0981,815.9943" fill="none" id="MotorInferencia-to-Nodo" style="stroke:#181818;stroke-width:1;"/><polygon fill="#181818" points="1062.27,817.42,1071.9627,819.1668,1067.1268,816.2319,1070.0617,811.396,1062.27,817.42" style="stroke:#181818;stroke-width:1;"/><text fill="#000000" font-family="sans-serif" font-size="13" lengthAdjust="spacing" textLength="22.9785" x="1746" y="591.0669">usa</text></g><!--link MotorInferencia to RedBayesiana--><g class="link" data-entity-1="MotorInferencia" data-entity-2="RedBayesiana" data-source-line="97" data-uid="lnk23" id="link_MotorInferencia_RedBayesiana"><path codeLine="97" d="M1242.23,373.05 C1192.85,392.35 1138.08,414.97 1089,438 C1060.95,451.16 1037.0674,463.1314 1008.6774,478.1014" fill="none" id="MotorInferencia-to-RedBayesiana" style="stroke:#181818;stroke-width:1;"/><polygon fill="#181818" points="1003.37,480.9,1013.1967,480.2404,1007.7928,478.5679,1009.4653,473.1639,1003.37,480.9" style="stroke:#181818;stroke-width:1;"/><text fill="#000000" font-family="sans-serif" font-size="13" lengthAdjust="spacing" textLength="22.9785" x="1138" y="426.0669">usa</text></g><!--link ControladorRed to RedBayesiana--><g class="link" data-entity-1="ControladorRed" data-entity-2="RedBayesiana" data-source-line="98" data-uid="lnk24" id="link_ControladorRed_RedBayesiana"><path codeLine="98" d="M1040.8,154.04 C982.77,168.78 934.87,186.93 912,209 C873.42,246.23 847.733,376.9053 833.163,474.8353" fill="none" id="ControladorRed-to-RedBayesiana" style="stroke:#181818;stroke-width:1;"/><polygon fill="#181818" points="832.28,480.77,837.5609,472.4566,833.0158,475.8244,829.648,471.2793,832.28,480.77" style="stroke:#181818;stroke-width:1;"/><text fill="#000000" font-family="sans-serif" font-size="13" lengthAdjust="spacing" textLength="22.9785" x="913" y="321.0669">usa</text></g><!--link ControladorRed to VistaRed--><g class="link" data-entity-1="ControladorRed" data-entity-2="VistaRed" data-source-line="99" data-uid="lnk25" id="link_ControladorRed_VistaRed"><path codeLine="99" d="M996.47,154.06 C944.84,162.91 893.11,172.88 844,184 C764.28,202.06 683.5446,226.0605 609.8546,250.0805" fill="none" id="ControladorRed-to-VistaRed" style="stroke:#181818;stroke-width:1;"/><polygon fill="#181818" points="604.15,251.94,613.9465,252.9539,608.9038,250.3904,611.4672,245.3477,604.15,251.94" style="stroke:#181818;stroke-width:1;"/><text fill="#000000" font-family="sans-serif" font-size="13" lengthAdjust="spacing" textLength="22.9785" x="845" y="197.0669">usa</text></g><!--link ControladorRed to ConsultaParser--><g class="link" data-entity-1="ControladorRed" data-entity-2="ConsultaParser" data-source-line="100" data-uid="lnk26" id="link_ControladorRed_ConsultaParser"><path codeLine="100" d="M1675.24,154.04 C1733.35,169.83 1794.95,188.41 1851,209 C1902.42,227.89 1952.7232,251.4773 1995.8132,273.2173" fill="none" id="ControladorRed-to-ConsultaParser" style="stroke:#181818;stroke-width:1;"/><polygon fill="#181818" points="2001.17,275.92,1994.9365,268.2948,1996.706,273.6678,1991.333,275.4372,2001.17,275.92" style="stroke:#181818;stroke-width:1;"/><text fill="#000000" font-family="sans-serif" font-size="13" lengthAdjust="spacing" textLength="22.9785" x="1819" y="197.0669">usa</text></g><!--link ControladorRed to MotorInferencia--><g class="link" data-entity-1="ControladorRed" data-entity-2="MotorInferencia" data-source-line="101" data-uid="lnk27" id="link_ControladorRed_MotorInferencia"><path codeLine="101" d="M1427.21,154.1 C1420.35,186.5 1412.9531,221.3602 1406.0831,253.8002" fill="none" id="ControladorRed-to-MotorInferencia" style="stroke:#181818;stroke-width:1;"/><polygon fill="#181818" points="1404.84,259.67,1410.6178,251.694,1405.8759,254.7785,1402.7914,250.0366,1404.84,259.67" style="stroke:#181818;stroke-width:1;"/><text fill="#000000" font-family="sans-serif" font-size="13" lengthAdjust="spacing" textLength="22.9785" x="1421" y="197.0669">usa</text></g><!--link ControladorRed to ILectorArchivos--><g class="link" data-entity-1="ControladorRed" data-entity-2="ILectorArchivos" data-source-line="102" data-uid="lnk30" id="link_ControladorRed_ILectorArchivos"><path codeLine="102" d="M1912.01,154.02 C2089.49,175.86 2258.36,198.26 2299,209 C2360.9,225.35 2422.2119,250.4382 2472.5919,273.4382" fill="none" id="ControladorRed-to-ILectorArchivos" style="stroke:#181818;stroke-width:1;"/><polygon fill="#181818" points="2478.05,275.93,2471.524,268.5536,2473.5016,273.8535,2468.2016,275.8311,2478.05,275.93" style="stroke:#181818;stroke-width:1;"/><text fill="#000000" font-family="sans-serif" font-size="13" lengthAdjust="spacing" textLength="22.9785" x="2253" y="197.0669">usa</text></g><!--reverse link ILectorArchivos to LectorArchivosTexto--><g class="link" data-entity-1="ILectorArchivos" data-entity-2="LectorArchivosTexto" data-source-line="118" data-uid="lnk32" id="link_ILectorArchivos_LectorArchivosTexto"><path codeLine="118" d="M2559,375.04 C2559,423.09 2559,486.11 2559,537.64" fill="none" id="ILectorArchivos-backto-LectorArchivosTexto" style="stroke:#181818;stroke-width:1;stroke-dasharray:7,7;"/><polygon fill="none" points="2559,357.04,2553,375.04,2565,375.04,2559,357.04" style="stroke:#181818;stroke-width:1;"/></g><!--SRC=[pLTBRziu4BxxLn2vL6riesSX2D360HgWQOnkDlUnoBXiPOv0Ka7tqVtjEwHU92NBRa_rmPR8cU4yllc6ViNkaOiI5nKKts0lsbVspuBHvx8emHZspiYzWaAYQjVTP_K2MiAk53dxmsgfzk5EYNgqV3cOoLBT9OjqNWzApGBR2_lKwcH7Tab_OijYyz1k_LY4WTsWCdLfuIV2UgXS052Em-kC7GikrLmoyIAvK8M4d7sKnbuD2Rh-rGnqXuGYgMqdVDiTFPcNJyWnp8d2mqvFPCIIDx3Lk8ETB2K7dhDxgAxQ-3POaxFNWoFER1RR2jnyGSdPYrH5NOBUQi558GpLj0Bkv9roAWrxBVPEUF0WAr1nwU8Sybn57ZPkJQRma_Tjb3jtjC_QrhbYZkz_a5ynsWwoqPxhvHxJl1tJQNwlMGNQYA64vCCepC02zoT5OM-0GmQzWQXEtIbJIFWi-7luInW92c94S3In5P-5mObGCmpFOmjtLYYX7swq03qFYr1-NdA7M0fGZ59Z9OcV0RSMG1jH2TNsGwEmRK3NnTOikl9EMBh1iXI5fRGEI70FCq3nsxVgGTEXZrXXYNjPODJNmbvrrHVVhGQXDtYGIdOXFIKiSwuknx2NVYoetZx55s_NwpSNRBNgdlngphuuJC-B-0urYvvDtv14C3FoWUWM4PvmPAahtMBnYZrHng2VI_uj7aj-YGm6k6ogUa13GUjR-guBMsl8Y4to2CklfrLyOvgpnJVaWPQx-iXC2_XzejsMZ0VgiKZB5KUE3PbZMojR4z-VcAYddQbonbDcZBAfDP7nGIW3NnFGUH3rrLYlhsFQoDb5RU0YbcWBtknGjGayLcC977LVys2jgxnKLkXdA0Ixw-2sTToe0n3yrmFHqsOcLLNRrEEfQy38qkLfIvuDHnFMYmypjiqziOgUTUGUBUexzIoqrmizcPea8NwsL2MX9PLe15u7XGOSNJZdec9-ffnrv2_YCKXkU_AEG44uBBvDdOQEIDjRb2VP9PFyUyu8BdGImSwntlmnpVK3N6IQwWG7GTWpvuLsJYmZo7NGJXWitiaE_Zu-Si6rKjupu9Av0UIokm6BPdttqR- -qyKN-O9csU2HjcEaBwctlLQ2kvG1Q7BGQYd_1fr1OtFWrY4BxLR8Ji8Scxm49BhUWUvlpGKUG77yqzIKteankvgw5rcarUpaFTeJLDBbZeIY8TLGKKehL_-krqdQ5ccRhbO9dqq9J59Y0eEVaUlPT4OcYML6ClLuHdGIOY6LUu6UnFtR17qd-kaCfvk0WvYCfdWTKjV98Ls0JluSqBtvB1jnhyQUFjAD2dylTtrxlA-VNVNuPq6AsbqocwV8HD0EqsNqS6-s9iB-7m00]--></g></svg>